<?xml version="1.0" standalone="no"?>
<!DOCTYPE svg PUBLIC "-//W3C//DTD SVG 20010904//EN"
 "http://www.w3.org/TR/2001/REC-SVG-20010904/DTD/svg10.dtd">
<svg version="1.0" xmlns="http://www.w3.org/2000/svg"
 width="700.000000pt" height="700.000000pt" viewBox="0 0 700.000000 700.000000"
 preserveAspectRatio="xMidYMid meet">
<metadata>
Created by potrace 1.11, written by Peter Selinger 2001-2013
</metadata>
<g transform="translate(0.000000,700.000000) scale(0.100000,-0.100000)"
fill="#000000" stroke="none">
<path d="M4321 5551 l-48 -49 -90 -6 c-49 -4 -101 -9 -114 -11 -13 -3 -40 -8
-59 -11 -19 -2 -66 -12 -105 -20 -38 -9 -81 -18 -95 -20 -14 -3 -32 -7 -40 -9
-25 -7 -245 -28 -277 -26 -12 0 -33 12 -47 26 -48 48 -137 33 -307 -50 l-86
-42 -129 -1 c-169 -1 -281 -14 -424 -48 -14 -3 -60 -7 -103 -9 -65 -3 -83 -7
-103 -26 -13 -12 -24 -28 -24 -34 0 -7 -17 -20 -37 -31 -48 -24 -170 -115
-220 -162 -7 -8 -19 -15 -26 -16 -6 -1 -45 -15 -85 -31 l-74 -29 -16 21 c-59
73 -134 44 -134 -52 l0 -42 -86 -48 c-48 -27 -107 -60 -132 -73 -92 -51 -366
-235 -390 -262 -3 -3 -18 -16 -35 -29 -16 -12 -49 -40 -71 -61 -40 -38 -43
-38 -101 -34 -53 4 -62 2 -86 -20 -28 -26 -36 -76 -17 -106 5 -8 6 -17 2 -20
-9 -6 -105 -120 -153 -180 -216 -270 -419 -748 -499 -1175 -18 -97 -22 -124
-35 -230 -3 -22 -7 -56 -10 -75 -3 -19 -7 -57 -10 -84 -4 -30 -16 -62 -32 -82
l-25 -34 19 -37 c11 -21 23 -66 26 -101 4 -35 8 -66 11 -70 2 -4 7 -39 11 -77
9 -81 19 -113 43 -132 9 -8 11 -12 5 -8 -25 12 -13 -29 29 -99 62 -107 174
-213 279 -264 47 -23 92 -42 100 -42 8 0 30 -9 50 -19 20 -11 49 -21 65 -24
16 -3 40 -8 54 -11 146 -35 738 -42 965 -12 72 10 157 20 190 22 33 3 83 9
110 14 75 15 227 35 325 45 30 3 75 7 100 10 84 9 145 15 225 20 44 3 105 8
135 10 30 2 98 7 150 10 52 3 118 8 145 10 28 2 96 7 153 10 56 3 112 8 125
11 12 3 94 7 182 9 88 2 210 6 270 9 61 3 173 8 250 11 77 3 165 8 195 12 68
7 80 7 205 -2 78 -5 109 -4 135 7 26 11 91 15 250 17 269 3 571 15 675 26 17
1 62 5 100 9 150 13 191 17 215 21 14 2 54 7 90 10 187 16 423 59 526 96 105
38 121 44 135 54 8 6 30 19 49 29 196 107 337 325 386 596 13 69 18 150 18
295 0 177 -9 369 -19 384 -1 4 -6 28 -9 55 -18 130 -84 373 -142 521 -88 223
-231 472 -391 682 -54 71 -63 89 -63 124 0 35 -6 47 -37 75 -20 19 -43 34 -50
34 -7 0 -14 3 -14 8 -1 4 -3 20 -5 35 -1 16 -10 39 -18 51 -44 67 -266 228
-423 307 -48 24 -92 50 -96 57 -22 34 -143 88 -218 97 -19 2 -62 7 -97 11 -36
4 -58 10 -51 15 7 4 19 5 28 2 15 -4 15 -4 0 6 -9 5 -31 13 -49 16 -18 3 -36
8 -39 10 -7 4 -82 16 -126 20 -16 2 -71 21 -122 44 -82 36 -202 74 -273 87
-14 2 -38 6 -55 9 -16 3 -39 7 -50 9 -11 2 -54 7 -95 10 -65 6 -78 10 -95 34
-67 87 -97 92 -164 23z"/>
</g>
</svg>
