<?xml version="1.0" standalone="no"?>
<!DOCTYPE svg PUBLIC "-//W3C//DTD SVG 20010904//EN"
 "http://www.w3.org/TR/2001/REC-SVG-20010904/DTD/svg10.dtd">
<svg version="1.0" xmlns="http://www.w3.org/2000/svg"
 width="300.000000pt" height="300.000000pt" viewBox="0 0 300.000000 300.000000"
 preserveAspectRatio="xMidYMid meet">
<metadata>
Created by potrace 1.11, written by Peter Selinger 2001-2013
</metadata>
<g transform="translate(0.000000,300.000000) scale(0.100000,-0.100000)"
fill="#000000" stroke="none">
<path d="M0 2630 c0 -203 2 -370 5 -370 3 0 20 24 39 53 36 57 111 128 174
166 21 12 47 37 58 55 16 27 19 28 22 11 15 -95 43 -226 52 -250 7 -17 14 -60
16 -96 4 -78 38 -231 58 -262 12 -18 13 -32 4 -72 -6 -27 -11 -65 -12 -84 -1
-19 -7 -36 -14 -38 -6 -3 -12 -13 -12 -24 0 -11 -7 -22 -16 -26 -8 -3 -13 -12
-10 -19 3 -8 2 -14 -2 -14 -13 0 -55 -99 -48 -115 3 -9 1 -25 -4 -35 -18 -33
-10 -305 10 -405 6 -27 13 -75 16 -105 2 -30 9 -86 15 -125 26 -178 48 -234
121 -307 l41 -41 61 7 c114 11 281 52 278 67 -2 8 -10 18 -18 22 -8 4 -14 15
-14 23 0 8 -10 19 -22 24 l-23 9 22 7 c29 8 20 24 -10 18 -16 -3 -15 -1 6 7
30 12 36 28 10 30 -12 1 -9 4 7 8 14 4 25 13 25 21 0 16 31 34 52 31 6 -1 14
3 18 9 3 5 1 10 -5 10 -7 0 -9 7 -6 17 5 11 -1 23 -16 35 -19 15 -20 18 -5 18
9 0 17 5 17 10 0 6 17 10 38 10 l37 1 -25 15 c-14 8 -17 13 -7 10 9 -3 29 0
42 6 l25 11 -22 24 c-12 13 -30 23 -40 23 -10 0 -18 5 -18 10 0 6 -6 10 -14
10 -24 0 -110 53 -148 92 -21 21 -42 38 -47 38 -6 0 -8 7 -5 15 4 8 1 15 -6
15 -6 0 -8 5 -5 10 3 6 1 10 -4 10 -6 0 -10 3 -10 7 4 23 -3 32 -17 26 -12 -4
-15 -2 -12 8 3 8 12 13 21 13 9 -1 13 4 10 12 -3 8 -12 14 -20 14 -8 0 -11 -4
-8 -10 3 -5 -3 -10 -14 -10 -11 0 -22 4 -25 8 -6 11 23 54 32 49 4 -2 15 4 25
15 9 10 14 18 10 18 -5 0 1 6 11 12 26 15 41 -8 49 -71 10 -82 59 -160 129
-204 44 -27 135 -37 203 -22 66 16 75 13 75 -20 0 -18 4 -23 15 -19 10 4 15 0
15 -12 1 -18 1 -18 11 -1 7 11 17 16 29 12 10 -3 21 -1 25 5 13 21 -26 243
-52 298 -27 58 -114 133 -157 136 -13 0 -22 4 -20 8 3 4 -10 11 -27 16 -18 4
-35 14 -37 21 -3 9 0 11 8 6 10 -6 12 -4 7 8 -7 19 4 22 31 8 63 -32 73 -35
81 -23 6 10 13 8 32 -6 13 -10 44 -25 69 -32 38 -11 53 -23 88 -72 23 -32 43
-68 43 -81 1 -17 2 -18 6 -4 3 10 9 14 16 10 8 -5 8 -2 0 9 -7 8 -10 18 -6 22
4 4 8 30 9 59 1 29 5 60 9 70 4 9 5 23 2 31 -3 8 1 22 8 33 8 10 15 26 15 35
0 9 7 23 15 31 7 8 16 26 20 41 3 14 7 37 10 51 3 14 12 25 20 25 18 0 38 37
29 52 -10 16 -5 122 6 126 5 2 4 16 0 33 -7 23 -5 29 6 29 8 0 19 10 23 23 l9
22 9 -23 c7 -19 11 -14 23 40 l14 63 6 -37 c4 -21 14 -46 22 -55 9 -10 13 -23
11 -30 -2 -7 0 -20 5 -29 9 -16 10 -15 16 4 7 20 9 21 24 6 9 -10 16 -34 17
-60 0 -23 4 -46 7 -50 4 -3 5 -20 2 -38 -4 -22 -3 -27 4 -17 5 7 14 11 20 7 6
-3 15 6 20 21 9 28 9 28 17 -12 4 -22 15 -48 23 -58 20 -22 42 -84 42 -117 0
-20 -2 -22 -10 -10 -7 12 -10 8 -10 -15 0 -16 -7 -43 -16 -60 -9 -16 -18 -41
-19 -55 -1 -14 -6 -38 -10 -55 -7 -29 -7 -29 8 -10 16 19 16 19 17 -10 l0 -30
21 35 c28 45 34 48 87 48 25 0 48 5 51 10 3 5 21 17 39 26 17 9 32 22 32 29 0
7 16 13 39 15 l40 2 -14 -27 c-8 -16 -38 -41 -66 -57 -29 -16 -49 -24 -45 -18
10 16 -14 26 -27 12 -9 -10 -9 -11 3 -5 13 8 13 7 1 -8 -7 -9 -10 -17 -6 -17
4 0 -9 -18 -28 -39 -20 -22 -43 -64 -52 -93 -20 -63 -31 -263 -14 -273 6 -4
30 -4 55 0 41 6 44 8 38 32 -7 26 -7 26 37 18 85 -16 150 -10 211 19 69 33
106 83 139 191 12 41 27 75 32 75 18 0 48 -43 41 -59 -4 -9 -7 -26 -8 -39 -1
-12 -7 -27 -15 -31 -8 -5 -11 -16 -7 -29 5 -13 1 -22 -10 -26 -9 -4 -14 -9
-11 -13 6 -5 -27 -40 -88 -91 -24 -20 -117 -66 -127 -64 -5 1 -8 -2 -8 -8 0
-5 -6 -10 -14 -10 -17 0 -29 -27 -16 -35 11 -7 3 -33 -18 -57 -14 -16 -12 -18
19 -16 19 1 54 1 79 -1 l45 -3 -50 -13 -50 -13 44 -1 c35 -1 42 -4 33 -13 -10
-10 -7 -15 10 -25 l23 -12 -22 -1 c-37 0 -26 -16 22 -35 36 -13 45 -21 40 -35
-3 -10 -1 -21 5 -25 7 -4 1 -16 -16 -33 l-26 -27 56 -7 c34 -5 86 -2 131 5 76
14 93 13 53 -2 -18 -6 -11 -9 33 -15 48 -7 56 -5 69 14 8 12 29 38 46 58 31
39 79 152 88 212 8 48 21 125 44 251 17 90 19 124 11 223 -5 64 -11 121 -14
125 -3 5 -7 26 -10 47 -13 106 -18 126 -36 137 -11 7 -19 18 -19 25 0 13 -7
30 -34 77 -56 100 -61 114 -47 148 7 17 19 64 27 102 7 39 20 93 29 120 10 32
14 66 10 95 -4 26 -1 58 5 75 22 57 50 260 51 367 2 111 -5 135 -51 179 -67
65 -202 24 -346 -106 -99 -89 -167 -156 -184 -181 -9 -13 -34 -42 -56 -66 -84
-90 -127 -159 -132 -210 -2 -27 -9 -51 -15 -55 -15 -9 -2 101 17 139 9 17 16
32 16 33 0 7 -57 -10 -70 -20 -8 -7 -44 -27 -80 -46 -75 -40 -85 -47 -94 -76
-7 -21 -46 -29 -46 -10 0 5 -7 7 -14 4 -11 -4 -13 -1 -9 11 4 9 11 20 17 25 6
4 1 6 -11 4 -31 -4 -51 -25 -55 -55 -2 -19 -8 -26 -20 -24 -11 2 -18 -3 -18
-13 0 -9 -4 -14 -9 -10 -6 3 -6 17 -1 35 5 18 5 30 -1 30 -8 0 -14 -38 -10
-62 0 -5 -5 -8 -13 -8 -8 0 -17 -6 -20 -12 -4 -7 -4 4 -2 25 3 20 1 37 -5 37
-5 0 -9 -4 -9 -10 0 -5 -9 -14 -21 -20 -17 -10 -25 -6 -59 30 -34 36 -42 40
-59 30 -12 -6 -21 -17 -21 -25 0 -8 -7 -15 -15 -15 -8 0 -15 9 -15 20 0 14 -7
20 -24 20 -18 0 -27 8 -35 32 -6 17 -14 28 -17 25 -4 -3 -13 0 -20 8 -8 8 -21
12 -28 9 -7 -3 -17 3 -21 13 -7 16 -9 15 -15 -7 l-8 -25 -1 26 c-1 35 -19 49
-63 49 -33 0 -37 -2 -29 -17 14 -30 41 -93 41 -100 0 -3 -7 0 -15 7 -8 7 -15
19 -15 26 0 8 -6 22 -14 31 -8 10 -45 56 -82 103 -37 47 -82 101 -100 120 -17
19 -63 69 -100 110 -61 67 -178 159 -208 164 -6 1 -16 5 -23 9 -21 13 -128 19
-155 8 -34 -13 -57 -57 -65 -122 -3 -27 -10 -49 -15 -49 -5 0 -7 15 -4 33 3
17 8 51 12 75 8 53 50 92 99 92 92 0 177 -32 280 -105 l60 -43 60 24 c33 13
69 28 80 33 11 5 40 17 65 27 25 10 47 21 50 24 3 3 25 15 50 28 25 13 63 34
85 48 22 13 48 24 58 24 9 0 17 5 17 10 0 7 -203 10 -590 10 l-590 0 0 -370z
m2540 140 c12 -8 11 -10 -5 -9 -11 1 -33 5 -50 9 l-30 8 35 1 c19 0 42 -4 50
-9z m-150 -80 c12 -8 12 -10 -5 -10 -11 0 -27 5 -35 10 -12 8 -12 10 5 10 11
0 27 -5 35 -10z m35 -30 c7 -12 -2 -12 -30 0 -19 8 -19 9 2 9 12 1 25 -3 28
-9z m-1881 -24 c-3 -8 -13 -17 -22 -19 -13 -4 -13 -5 3 -6 11 0 27 3 34 8 17
11 49 -3 68 -28 18 -23 16 -34 -6 -28 -10 2 -25 -3 -33 -12 -25 -27 -55 -49
-77 -56 -34 -11 -15 21 24 39 19 9 37 22 41 28 4 7 3 8 -5 4 -6 -4 -25 -11
-41 -16 -24 -7 -28 -6 -23 7 5 13 1 15 -18 10 l-24 -6 25 20 25 20 -25 -7
c-25 -7 -25 -6 5 24 32 32 58 42 49 18z m1889 -23 c16 -8 31 -12 35 -9 3 3 1
6 -5 6 -6 0 -13 7 -16 14 -4 10 -1 13 9 9 13 -5 18 -17 15 -35 0 -5 4 -8 9 -8
6 0 10 -5 10 -12 0 -9 -3 -9 -12 0 -16 16 -28 15 -28 -3 0 -18 -12 -19 -28 -3
-20 20 -14 -7 8 -32 38 -44 19 -35 -38 17 -7 7 -28 15 -47 19 -44 8 -52 20
-29 45 19 22 65 18 117 -8z m-1763 -58 c11 -13 10 -14 -4 -9 -9 3 -16 10 -16
15 0 13 6 11 20 -6z m1699 -35 c17 0 41 -18 41 -31 0 -4 -17 -5 -37 -2 -21 2
-48 5 -60 5 -13 0 -21 4 -18 8 3 5 1 11 -5 15 -7 4 -7 13 0 26 11 19 11 19 37
-1 14 -11 33 -20 42 -20z m31 9 l25 -20 -32 16 c-18 8 -33 18 -33 20 0 10 16
4 40 -16z m-1705 -9 c3 -5 2 -10 -4 -10 -5 0 -13 5 -16 10 -3 6 -2 10 4 10 5
0 13 -4 16 -10z m-55 -19 c0 -12 64 -31 86 -25 12 3 25 0 29 -7 6 -9 2 -11
-12 -7 -13 3 -20 0 -20 -9 0 -8 6 -12 14 -9 8 3 11 1 8 -4 -3 -6 -14 -10 -23
-10 -15 -1 -15 -2 1 -11 14 -8 15 -14 7 -24 -6 -8 -17 -12 -23 -10 -7 2 -24 6
-39 9 -32 7 -28 36 4 36 11 0 16 5 13 10 -4 6 -15 8 -25 5 -10 -3 -21 -1 -25
5 -3 5 -19 10 -34 10 -31 0 -60 25 -45 40 18 17 84 18 84 1z m1807 -7 c-3 -3
-12 -4 -19 -1 -8 3 -5 6 6 6 11 1 17 -2 13 -5z m-134 -47 c3 2 7 -3 11 -12 5
-14 1 -16 -27 -10 -42 8 -75 25 -81 40 -3 9 10 7 44 -5 27 -10 51 -16 53 -13z
m61 4 c4 -5 -3 -7 -14 -4 -23 6 -26 13 -6 13 8 0 17 -4 20 -9z m-81 -71 c15 0
27 -4 27 -10 0 -5 -7 -10 -16 -10 -14 0 -14 -3 -4 -15 7 -8 23 -15 35 -15 12
0 28 -7 35 -15 11 -13 9 -15 -10 -13 -13 2 -25 -3 -27 -9 -3 -7 1 -13 7 -13 7
0 21 -11 32 -25 11 -14 25 -22 31 -19 9 5 9 4 1 -5 -9 -10 -22 -8 -59 8 -27
12 -50 19 -53 16 -3 -3 -3 -6 -1 -8 2 -2 23 -15 47 -30 23 -15 40 -32 37 -37
-4 -6 7 -13 24 -16 17 -4 31 -10 31 -15 0 -18 -54 -8 -117 21 -35 17 -66 30
-69 30 -2 0 -22 18 -45 40 l-40 39 32 -9 c36 -11 65 3 31 14 -30 10 -77 56
-57 56 9 0 25 -5 35 -10 13 -7 21 -7 25 0 3 5 -5 15 -19 22 -14 6 -26 15 -26
19 0 10 39 18 65 13 11 -2 32 -4 48 -4z m104 -15 c-2 -5 -9 -10 -15 -9 -7 1
-21 2 -32 3 -34 2 -22 16 15 16 19 0 34 -4 32 -10z m-1609 -54 c11 -16 12 -21
3 -19 -7 2 -17 -8 -22 -21 -8 -20 -7 -22 8 -17 12 5 15 4 8 -3 -16 -15 -48
-16 -73 -3 -12 7 -35 14 -51 15 -16 1 -27 5 -25 9 9 14 -99 29 -112 15 -13
-12 -34 -8 -28 6 8 21 64 43 114 46 25 1 63 6 85 10 44 9 69 -1 93 -38z m287
-21 c3 -5 1 -10 -4 -10 -6 0 -11 5 -11 10 0 6 2 10 4 10 3 0 8 -4 11 -10z
m537 -25 c3 -13 1 -22 -3 -19 -9 5 -13 44 -5 44 2 0 6 -11 8 -25z m1005 -27
c-3 -8 -6 -5 -6 6 -1 11 2 17 5 13 3 -3 4 -12 1 -19z m-1992 -18 c-3 -5 -18
-10 -33 -9 -24 0 -25 1 -7 9 28 12 47 12 40 0z m105 0 c0 -5 13 -7 32 -3 39 8
31 -12 -9 -22 -16 -3 -35 -13 -43 -20 -21 -18 -84 -27 -115 -15 -33 12 -23 30
16 30 18 0 29 5 29 14 0 13 20 20 73 25 9 0 17 -3 17 -9z m-86 -89 c7 -11 -43
-21 -107 -21 -67 0 -53 11 25 20 35 4 66 8 70 9 4 0 9 -3 12 -8z m1526 -4 c0
-2 -10 -12 -22 -23 l-23 -19 19 23 c18 21 26 27 26 19z m92 -52 c-17 -37 -15
-41 8 -20 18 16 20 16 15 3 -4 -10 -24 -26 -45 -37 -38 -19 -39 -19 -45 -2 -3
11 -15 21 -27 24 -19 5 -20 8 -7 23 20 25 92 55 103 44 6 -6 5 -19 -2 -35z
m-1452 10 c11 -13 10 -14 -4 -9 -9 3 -16 10 -16 15 0 13 6 11 20 -6z m1320 -9
c0 -2 -8 -10 -17 -17 -16 -13 -17 -12 -4 4 13 16 21 21 21 13z m-1370 -16 c0
9 7 7 20 -5 23 -21 29 -75 6 -56 -7 6 -20 9 -28 6 -7 -3 -23 4 -35 15 -12 11
-30 20 -40 20 -25 0 -4 17 27 22 14 2 31 0 38 -5 8 -6 12 -5 12 3z m-57 -62
c28 -14 37 -23 27 -26 -8 -3 -18 -10 -22 -15 -9 -15 -61 9 -52 25 4 6 3 8 -4
4 -6 -3 -13 -2 -17 4 -3 5 1 10 10 10 9 0 13 5 10 10 -9 15 1 12 48 -12z
m1647 2 c-11 -20 -40 -28 -40 -10 0 9 28 29 43 30 4 0 3 -9 -3 -20z m-1183
-32 c-3 -7 -5 -2 -5 12 0 14 2 19 5 13 2 -7 2 -19 0 -25z m1209 9 c8 3 14 -1
14 -11 0 -9 -3 -17 -7 -17 -36 -6 -53 -4 -53 5 0 17 24 39 28 27 2 -5 10 -7
18 -4z m-316 -1 c0 -2 -8 -10 -17 -17 -16 -13 -17 -12 -4 4 13 16 21 21 21 13z
m-1393 -26 c21 -11 31 -20 23 -20 -7 0 -24 -10 -37 -22 -19 -18 -25 -19 -36
-8 -10 10 -9 12 6 7 22 -8 12 11 -17 32 -19 14 -19 15 0 22 10 4 20 8 22 8 1
1 19 -8 39 -19z m780 -25 c0 -8 -4 -15 -9 -15 -4 0 -8 7 -8 15 0 8 4 15 8 15
5 0 9 -7 9 -15z m-54 -10 c-3 -9 -8 -14 -10 -11 -3 3 -2 9 2 15 9 16 15 13 8
-4z m588 -52 c-5 -10 -17 -27 -26 -38 -16 -19 -17 -19 -3 5 26 46 29 50 34 50
3 0 0 -8 -5 -17z m-991 -98 c0 -8 8 -12 19 -10 12 2 23 -5 31 -21 8 -13 17
-24 22 -24 5 0 6 -5 3 -11 -5 -6 -12 -3 -21 10 -8 11 -20 18 -28 15 -7 -3 -19
2 -26 12 -17 19 -24 58 -10 49 5 -3 10 -12 10 -20z m457 -7 c-3 -8 -6 -5 -6 6
-1 11 2 17 5 13 3 -3 4 -12 1 -19z m-136 -25 c-12 -20 -14 -14 -5 12 4 9 9 14
11 11 3 -2 0 -13 -6 -23z m649 10 c0 -5 -10 -19 -21 -33 l-20 -25 16 33 c15
30 25 41 25 25z m47 -19 c-3 -3 -12 -4 -19 -1 -8 3 -5 6 6 6 11 1 17 -2 13 -5z
m-685 -64 c-8 -48 -25 -57 -30 -16 -3 24 29 88 35 70 2 -5 -1 -29 -5 -54z
m-278 5 c21 -19 30 -32 22 -29 -10 4 -16 1 -16 -9 0 -13 -5 -13 -29 -4 -18 6
-27 16 -24 24 4 11 9 11 24 -3 11 -9 19 -12 19 -6 0 5 -14 22 -31 36 -17 15
-24 26 -16 26 8 0 31 -16 51 -35z m944 16 c-7 -11 -21 -22 -33 -25 -15 -4 -13
0 10 19 36 30 39 31 23 6z m55 -44 c7 3 -2 -7 -19 -23 -17 -16 -33 -35 -35
-43 -3 -8 -10 -11 -17 -7 -9 5 -8 13 4 31 9 13 12 30 8 36 -4 7 -3 9 3 6 6 -4
17 1 24 10 13 15 14 15 17 -1 2 -9 8 -13 15 -9z m-764 -26 c-15 -5 -22 6 -14
19 6 9 10 9 16 -1 5 -8 4 -15 -2 -18z m-569 -35 c0 -8 15 -23 33 -35 l32 -21
-45 0 c-25 0 -52 5 -60 10 -12 7 -8 10 15 10 17 0 26 4 20 8 -13 9 -16 42 -4
42 5 0 9 -6 9 -14z m372 -19 c11 -18 10 -24 -6 -24 -8 0 -12 6 -9 14 3 7 1 13
-4 13 -5 0 -18 7 -29 15 -18 14 -17 14 11 4 16 -5 33 -16 37 -22z m-317 13 c8
-13 -5 -13 -25 0 -13 8 -13 10 2 10 9 0 20 -4 23 -10z m578 -5 c4 -8 2 -17 -3
-20 -6 -4 -10 3 -10 14 0 25 6 27 13 6z m762 -55 c-3 -5 -17 -10 -31 -10 -14
0 -22 4 -19 10 3 6 17 10 31 10 14 0 22 -4 19 -10z m-1301 -8 c5 -3 -4 -11
-20 -18 -24 -11 -25 -13 -7 -11 12 1 23 -2 25 -8 2 -5 -18 -11 -44 -13 -37 -2
-48 0 -48 12 0 8 -6 17 -12 19 -10 4 -10 8 0 15 15 10 91 13 106 4z m1491 -22
c13 -5 14 -9 5 -9 -8 0 -24 4 -35 9 -13 5 -14 9 -5 9 8 0 24 -4 35 -9z m-1310
-170 c3 -5 2 -10 -4 -10 -5 0 -13 5 -16 10 -3 6 -2 10 4 10 5 0 13 -4 16 -10z
m1232 -22 c-3 -8 -6 -5 -6 6 -1 11 2 17 5 13 3 -3 4 -12 1 -19z m-16 -60 c-14
-37 -60 -87 -95 -104 -28 -14 -27 -12 11 21 23 20 52 54 64 75 24 43 35 47 20
8z m-1067 -63 c-3 -8 -14 -17 -25 -20 -10 -4 -19 -10 -19 -14 0 -25 -119 -43
-154 -24 -9 5 9 8 48 8 57 0 68 3 103 32 42 35 55 40 47 18z"/>
<path d="M749 2293 c-13 -17 -13 -17 6 -3 11 8 22 16 24 17 2 2 0 3 -6 3 -6 0
-17 -8 -24 -17z"/>
<path d="M695 2190 c-3 -5 -2 -10 4 -10 5 0 13 5 16 10 3 6 2 10 -4 10 -5 0
-13 -4 -16 -10z"/>
<path d="M1622 664 c-13 -9 -27 -27 -33 -40 -8 -23 -10 -24 -36 -11 -21 11
-32 12 -46 3 -14 -9 -21 -8 -30 4 -20 26 -60 50 -84 50 -39 0 -34 -18 10 -39
36 -18 49 -32 80 -93 54 -104 48 -126 -47 -172 -91 -46 -164 -68 -169 -52 -3
8 -9 7 -20 -3 -11 -9 -17 -10 -17 -2 0 15 -33 14 -49 -1 -11 -11 -12 -8 -6 12
7 22 6 24 -9 11 -13 -11 -20 -11 -28 -3 -22 22 -51 12 -97 -31 -25 -24 -72
-68 -103 -98 -47 -43 -56 -57 -47 -69 9 -12 10 -11 4 5 -6 18 -4 18 16 -3 15
-17 24 -21 32 -13 17 17 25 13 23 -14 0 -14 -8 -28 -18 -30 -9 -3 -19 -12 -22
-20 -4 -11 0 -12 19 -5 18 7 25 6 25 -2 0 -7 7 -3 16 8 8 10 13 14 10 7 -7
-14 10 -27 18 -14 7 11 79 -4 84 -18 2 -5 10 -7 18 -4 8 3 14 -1 14 -11 0 -14
33 -15 295 -16 197 0 295 3 295 10 0 7 6 7 19 0 31 -16 148 -13 154 4 3 8 22
22 41 31 20 10 36 23 36 30 0 15 22 25 58 25 24 0 70 19 48 20 -6 0 -2 6 8 13
15 11 16 17 7 35 -14 25 -14 42 -1 42 5 0 7 -8 4 -17 -5 -14 -4 -15 4 -4 8 11
10 11 15 0 3 -9 6 -9 6 -2 1 12 -146 143 -161 143 -13 0 -9 -18 5 -23 9 -4 9
-6 -1 -6 -7 -1 -21 3 -31 9 -14 7 -24 4 -39 -10 -24 -23 -34 -25 -30 -7 3 13
-3 17 -27 17 -8 0 -15 -5 -15 -11 0 -6 7 -9 15 -5 9 3 15 0 15 -10 0 -8 -4
-12 -10 -9 -5 3 -10 -2 -10 -12 0 -15 -4 -14 -20 7 -10 14 -15 27 -10 28 26 9
5 22 -35 22 -26 0 -63 9 -84 20 -21 10 -41 16 -44 13 -4 -3 -22 6 -42 21 -23
18 -35 35 -35 52 0 13 -4 24 -10 24 -19 0 -10 30 20 72 17 22 30 46 30 53 0
14 46 58 78 74 12 6 22 16 22 21 0 16 -53 11 -78 -6z m-569 -429 c-77 -85
-104 -105 -35 -25 25 29 96 100 100 100 2 0 -27 -34 -65 -75z m632 23 c11 1
23 -4 26 -10 6 -9 11 -9 22 0 11 9 18 8 34 -6 l20 -17 -23 -18 c-12 -9 -34
-17 -48 -17 -14 0 -26 -4 -26 -10 0 -5 -9 -10 -20 -10 -14 0 -20 7 -20 23 0
17 -2 19 -9 8 -7 -11 -13 -8 -28 17 -11 18 -24 29 -29 24 -4 -4 -2 1 5 11 11
14 21 16 45 11 17 -4 40 -7 51 -6z m123 -7 c3 -8 -1 -12 -9 -9 -7 2 -15 10
-17 17 -3 8 1 12 9 9 7 -2 15 -10 17 -17z m-230 -29 c6 -18 -15 -14 -22 4 -4
10 -1 14 6 12 6 -2 14 -10 16 -16z m-53 -2 c-3 -5 -10 -10 -16 -10 -5 0 -9 5
-9 10 0 6 7 10 16 10 8 0 12 -4 9 -10z m72 -12 c-3 -8 -6 -5 -6 6 -1 11 2 17
5 13 3 -3 4 -12 1 -19z"/>
<path d="M2395 630 c-3 -5 -1 -10 4 -10 6 0 11 5 11 10 0 6 -2 10 -4 10 -3 0
-8 -4 -11 -10z"/>
<path d="M803 545 c-7 -8 -9 -16 -5 -19 4 -3 13 4 20 15 14 22 3 25 -15 4z"/>
<path d="M675 534 c-33 -8 -77 -17 -97 -20 -62 -11 -26 -41 57 -49 20 -2 55
18 55 32 0 7 5 13 12 13 6 0 8 3 4 7 -4 5 12 13 36 19 63 17 6 15 -67 -2z"/>
<path d="M822 523 c3 -18 36 -26 57 -14 21 13 3 31 -30 31 -23 0 -30 -4 -27
-17z"/>
<path d="M1045 353 c-11 -3 -26 -10 -34 -16 -7 -6 -20 -12 -28 -13 -8 -2 -18
-5 -21 -9 -8 -7 33 0 63 11 11 4 -7 -19 -40 -50 -33 -32 -44 -46 -25 -31 47
37 106 90 114 104 7 11 4 12 -29 4z"/>
<path d="M930 290 c0 -5 -3 -9 -7 -8 -18 4 -62 -26 -73 -51 -7 -14 -16 -34
-21 -43 -16 -32 6 -19 52 30 60 63 74 82 60 82 -6 0 -11 -4 -11 -10z"/>
<path d="M812 274 c-7 -8 -10 -14 -6 -14 3 0 0 -8 -7 -17 -8 -9 0 -7 19 7 37
27 36 26 19 33 -6 2 -18 -2 -25 -9z"/>
<path d="M503 161 c-27 -23 -30 -33 -5 -24 18 7 42 28 42 37 0 11 -15 5 -37
-13z"/>
<path d="M565 150 c-30 -6 -30 -6 -5 -13 13 -3 29 -2 34 3 14 14 5 17 -29 10z"/>
<path d="M1985 70 c3 -5 8 -10 11 -10 2 0 4 5 4 10 0 6 -5 10 -11 10 -5 0 -7
-4 -4 -10z"/>
</g>
</svg>
